<svg xmlns="http://www.w3.org/2000/svg" viewBox="0 0 153.6 153.6" enable-background="new 0 0 153.6 153.6"><g fill="#1d252c"><path d="m134.3 125.8c6-9.9-3-25.8-3.4-26.5l-.6-1-1.1.2c-2.5.6-5.1.6-7.6-.1-1-.3-1.8-1.2-1.8-2.3 0-1.1.6-2 1.6-2.3l4.7-1.6-.2-1.2c-.8-4.9-6.8-10.7-7.4-11.3l-.6-.6-.8.2c-3.1.8-6.5.1-9.1-1.8l9.1-4-1.9-1.5c-18.4-14.6-36.5-9.3-40.9-7.7l-9-9c-.6-.6-1.5-.6-2.1-.1s-.6 1.5-.1 2.1c0 0 0 .1.1.1l9 9c-1.6 4.4-6.9 22.5 7.7 40.9l1.5 2 4-9.1c2 2.6 2.7 5.9 1.9 9.1l-.2.8.6.6c.7.7 6.5 6.7 11.3 7.4l1.2.2 1.6-4.7c.4-1.3 1.8-1.9 3.1-1.5.8.3 1.3.9 1.6 1.7.7 2.5.7 5.1.1 7.6l-.2 1.1 1 .6c.5.3 9.6 5.4 18.3 5.4 2.8.1 5.6-.6 8.1-2l.2-.2c.1-.1.1-.2.2-.2 0-.1.1-.2.1-.3m-24.6-5c.5-2.6.4-5.3-.3-7.9-.8-2.9-3.7-4.6-6.6-3.9-1.8.5-3.2 1.8-3.8 3.6l-.7 2.2c-2.8-1-6.2-4-7.9-5.7.9-4.8-.8-9.6-4.4-12.8l-1.5-1.3-3.7 8.4c-10.7-15-7.8-29.4-6.2-34.6l50.5 50.6c.3.3.7.4 1.1.4.8 0 1.5-.7 1.5-1.5 0-.4-.2-.8-.4-1.1l-50.6-50.6c3.2-1 6.6-1.5 9.9-1.6 8.9-.2 17.6 2.5 24.8 7.9l-8.4 3.7 1.3 1.5c3.2 3.6 8.1 5.3 12.8 4.4 1.7 1.7 4.6 5.1 5.7 7.9l-2.2.7c-2.8.9-4.4 4-3.4 6.8.6 1.7 2 3 3.7 3.5 2.6.7 5.3.8 7.9.3 1.7 3.4 7.1 15 3.1 22.2-7.2 4.1-18.8-1.3-22.2-3.1"/><path d="m115.1 133.1c-.7-.4-1.6-.1-2 .6-2.4 4.1-6.7 6.7-11.5 6.7h-69.7c-6.4 0-11.6-5.2-11.6-11.6v-12l75.3 20.9c.8.2 1.6-.3 1.8-1.1.2-.8-.3-1.6-1-1.8l-66.1-18.3v-90c0-7.3 5.9-13.2 13.2-13.2h69.7c6.4 0 11.6 5.2 11.6 11.6v12l-75.3-20.9c-.8-.2-1.6.2-1.9 1s.2 1.6 1 1.9c0 0 .1 0 .1 0l66.1 18.3v26.3c0 .8.7 1.5 1.5 1.5s1.5-.7 1.5-1.5v-25.5l10 2.8v-15.9c0-8-6.5-14.6-14.6-14.6h-69.7c-8.9 0-16.2 7.3-16.2 16.2v89.1l-10-2.8v15.9c0 8 6.5 14.6 14.6 14.6h69.7c5.8 0 11.2-3.1 14.1-8.2.3-.7.1-1.6-.6-2"/><path d="m82.5 48.6c0-.8-.7-1.5-1.5-1.5h-39c-.8 0-1.5.7-1.5 1.5s.7 1.5 1.5 1.5h39c.8 0 1.5-.7 1.5-1.5"/><path d="m42 54.8c-.8 0-1.5.7-1.5 1.5s.7 1.5 1.5 1.5h16.6c.8 0 1.5-.7 1.5-1.5s-.7-1.5-1.5-1.5h-16.6"/></g><path fill="#f7d916" d="m65.4 121.5l-30.6-49.7v41.2z"/></svg>