<svg xmlns="http://www.w3.org/2000/svg" viewBox="0 0 153.6 153.6" enable-background="new 0 0 153.6 153.6"><path d="m80.6 129c-1.7-4.6-5-8.4-9.2-10.9-5.3-2.8-11.8-2.7-17.3-5.2-9-4.1-13.3-14.3-20.6-21-3.9-3.6-8.5-6.3-13.5-7.9v45h60.6" fill="#f7d916"/><g fill="#1d252c"><path d="m140.2 33.1h-31.9v-9.8c0-4.4-3.5-7.9-7.9-7.9h-47.2c-4.4 0-7.9 3.5-7.9 7.9v9.8h-31.9c-3.8 0-6.9 3.2-6.9 7v31.7c0 1.9 1.4 3.6 3.3 3.9l1 .2v55.4c0 3.8 3.2 7 7 6.9h118.2c3.8 0 6.9-3.1 6.9-6.9v-55.4l1-.2c1.9-.3 3.3-2 3.3-3.9v-31.7c-.1-3.8-3.1-6.9-7-7m-91.9-9.8c0-2.7 2.2-4.9 4.9-4.9h47.3c2.7 0 4.9 2.2 4.9 4.9v9.8h-57l-.1-9.8m91.6 108c0 2.2-1.8 3.9-3.9 3.9h-118.3c-2.2 0-4-1.8-4-3.9v-54.9c17.7 2.8 35.6 4.4 53.5 4.9v5.3c0 1.6 1.3 2.8 2.8 2.8h13.4c1.6 0 2.8-1.3 2.8-2.8v-5.3c17.9-.4 35.8-2.1 53.5-4.9v54.9zm-56.6-51.5v6.6h-13v-13h13v6.4m60.9-8c0 .5-.3.8-.8.9-18.9 3.2-38 5-57.1 5.5v-5c0-1.6-1.3-2.8-2.8-2.8h-13.4c-1.6 0-2.8 1.3-2.8 2.8v5.1c-19.1-.5-38.2-2.3-57.1-5.5-.4-.1-.8-.5-.8-.9v-31.8c0-2.2 1.8-4 3.9-4h126.8c2.2 0 3.9 1.8 3.9 3.9 0 0 0 0 0 .1v31.7z"/><path d="m74.3 81.4h5.1c.8 0 1.5-.7 1.5-1.5s-.7-1.5-1.5-1.5h-5.1c-.8 0-1.5.7-1.5 1.5s.6 1.5 1.5 1.5"/><path d="m84.8 93.2h-16c-.8 0-1.5.7-1.5 1.5s.7 1.5 1.5 1.5h16c.8 0 1.5-.7 1.5-1.5s-.6-1.5-1.5-1.5"/><path d="m90.8 23.8h-28c-.8 0-1.5.7-1.5 1.5s.7 1.5 1.5 1.5h28c.8 0 1.5-.7 1.5-1.5s-.6-1.5-1.5-1.5"/></g></svg>