<svg xmlns="http://www.w3.org/2000/svg" viewBox="0 0 153.6 153.6" enable-background="new 0 0 153.6 153.6"><g fill="#1d252c"><path d="m128.3 111.2c-1-5.1-3.7-9.6-7.7-12.9-2.2-1.9-4.8-3.3-7.6-4l-18-5.2c-.2-.1-.5-.2-.7-.3-.6-.4-.9-1-1-1.7l-.7-6.3c4.9-4.2 8.5-9.8 10.2-16 3.5-.9 6-4.9 6-9.7 0-4.3-2.1-8-5.1-9.4-.1-3.9-.6-7.7-1.7-11.4-.2-.8-1.1-1.2-1.9-1-.8.2-1.2 1.1-1 1.9 1.1 3.8 1.6 7.7 1.6 11.6 0 .8.6 1.5 1.4 1.6 2.1.6 3.7 3.5 3.7 6.8 0 3.7-1.9 6.7-4.3 6.9l-1 .1-.3 1c-1.6 6.3-5.1 11.9-10.2 15.9l-.7.5.6 5.4-13.1 11.7-13.2-11.7.6-5.5-.7-.5c-5-4.1-8.5-9.6-10.1-15.9l-.3-1-1-.1c-2.4-.2-4.3-3.2-4.3-6.9 0-3.3 1.6-6.2 3.7-6.8h.1l.2-.1.1-.1c.1 0 .1-.1.1-.1l.1-.1.1-.1c0 0 0-.1.1-.1l.1-.1c0 0 0-.1 0-.1s0-.1.1-.2v-.2c0 0 0-.1 0-.1 0-.1 0-.2 0-.3 0-.2-.6-9.5 2.8-14.6 0-.1.1-.2.1-.2s0-.1 0-.1 0-.1 0-.1c0-.1 0-.2 0-.3.1-10.5 9-16.4 17.2-17.5l.4-.1c4.4-.5 8.8-1.4 13-2.7 0 .4 0 .7-.2 1.1l-.6 1.6 1.6.4c4.4 1.2 9 1.1 13.3-.4 0 3.3-.1 8-1.1 10.1-1.1 2.7-3.3 4.8-6 5.8-1.8.5-3.8.5-5.7.2-2.5-.4-5-.9-7.4-1.5-1.6-.4-3.3-.8-5-1.1-5.4-1-9.6-1-13.3.1-.8.2-1.2 1.1-1 1.9.2.8 1.1 1.2 1.9 1 3.2-1 7-1 11.9-.1 1.6.3 3.2.7 4.8 1.1 2.6.6 5.1 1.2 7.7 1.6 1 .2 2.1.2 3.1.2 1.3 0 2.6-.2 3.8-.5 3.6-1.2 6.4-3.9 7.8-7.4 1.5-3.4 1.4-10.2 1.3-13.5v-2.3l-2 .9c-3.8 1.7-7.9 2.1-12 1.3.1-1.1-.2-2.3-.8-3.2l-.1-1.1-1.2.5c-4.5 1.8-11.2 2.7-13.7 3h-.5c-9.4 1.2-19.5 8-19.8 20-3.1 4.9-3.2 12.2-3.2 15-2.9 1.5-4.8 5-4.8 9.2 0 4.8 2.5 8.7 6 9.7 1.7 6.2 5.3 11.8 10.2 16l-.6 6.3c-.1.7-.5 1.3-1 1.7-.2.1-.4.2-.7.3l-17.9 5.2c-2.8.7-5.5 2.1-7.7 4-4 3.3-6.7 7.8-7.7 12.8l-4.5 35h111.8l-4.4-34.8m-100 .4c.9-4.3 3.2-8.2 6.6-11 1.9-1.6 4.1-2.8 6.5-3.4l18-5.2c.6-.2 1.1-.4 1.6-.7 1-.7 1.7-1.6 2.1-2.8l12.1 10.9v23.8c0 .8.7 1.5 1.5 1.5s1.5-.7 1.5-1.5v-23.8l12.3-11c.5 1.7 1.9 3.1 3.7 3.6l18.1 5.2c2.4.6 4.6 1.8 6.4 3.4 3.4 2.8 5.7 6.7 6.6 11l4 31.4h-105l4-31.4"/><path d="m88.7 26.1c.8 0 1.5-.1 2.3-.3 2.7-.7 4.8-2.8 5.6-5.5.3-.8-.1-1.6-.9-1.9-.8-.3-1.6.1-1.9.9 0 .1 0 .1 0 .2-.5 1.7-1.8 3-3.5 3.4-1.8.5-3.9-.1-5.8-.6-.8-.2-1.6.2-1.9 1-.2.8.2 1.6 1 1.9 0 0 .1 0 .1 0 1.7.6 3.3.9 5 .9"/></g><path fill="#f7d916" d="m108.8 132.5l-9.6 6-9.6-6v-18.7l19.2.2z"/></svg>