<svg xmlns="http://www.w3.org/2000/svg" viewBox="0 0 153.6 153.6" enable-background="new 0 0 153.6 153.6"><g fill="#1d252c"><path d="m114.6 124.9c-.9-5.4-.6-11 .8-16.3.2-.8-.3-1.6-1.1-1.8s-1.6.3-1.8 1.1c-1.6 5.8-1.8 11.8-.8 17.7l4.5 18.3c.2.7.8 1.1 1.4 1.1.1 0 .2 0 .4 0 .8-.2 1.3-1 1.1-1.8l-4.5-18.3"/><path d="m47.2 121.9c-2.8-.7-5.7-1-8.6-1-1 0-2.1.1-3.1.2-1.8.2-3.5.2-5.3.1-3.1-.3-5.4-1.5-6.6-3.3-1-1.7-1-4 0-6.5 1.6-3.7.2-6.3-.9-8.2l-.3-.5c-1.5-2.8-.9-3.9.2-5.6.9-1.3 1.4-2.8 1.5-4.3 0-2.5-1.9-4.6-4.5-4.8-1.9-.2-3.7-1-5.1-2.3-.7-.7-.8-1.7-.3-2.6l1.7-2.8c8-13 8.1-13.3 10.1-27.5.4-2.8.9-6.1 1.5-10.2 1.4-8.8 6.8-17.1 15-22.8.7-.4.9-1.4.4-2-.5-.7-1.4-.9-2.1-.4-8.8 5.9-14.7 14.9-16.1 24.5-.7 4.1-1.1 7.5-1.5 10.3-2 13.8-2 13.8-9.7 26.4l-1.7 2.8c-1.3 2-1 4.6.7 6.3 1.9 1.8 4.3 2.9 6.9 3.1 1 0 1.7.8 1.8 1.8-.1 1-.5 2-1.1 2.9-1.2 2-2.6 4.4-.2 8.6l.3.5c1 1.7 1.8 3.2.8 5.5-1.8 4.4-.9 7.4.2 9.2 1.6 2.7 4.8 4.4 8.9 4.8 1.9.1 3.9.1 5.8-.1 1-.1 2-.1 3-.2 2.7 0 5.3.3 7.9.9 2.4.6 4.2 2.5 4.7 4.8 1.1 5.2 1 10.5-.3 14.4-.3.8.2 1.6 1 1.9.1 0 .3.1.5.1.6 0 1.2-.4 1.4-1 1.4-4.4 1.6-10.1.4-15.9-1.1-3.4-3.8-6.2-7.3-7.1"/><path d="m134.4 49.6h-33.7v-32.6c0-5.1-4.2-9.3-9.3-9.3h-35.4c-5.2 0-9.3 4.1-9.4 9.3v35.5c0 5.1 4.2 9.3 9.3 9.3h32.6v33.7c0 4.6 3.7 8.2 8.2 8.2h37.6c4.6 0 8.2-3.7 8.2-8.2v-37.7c.2-4.5-3.5-8.2-8.1-8.2m-84.8 2.9v-35.5c0-3.5 2.8-6.3 6.3-6.3 0 0 0 0 .1 0h35.4c3.5 0 6.3 2.8 6.3 6.3v35.5c0 3.5-2.8 6.3-6.3 6.3h-35.4c-3.5 0-6.3-2.8-6.4-6.3m90 43c0 2.9-2.4 5.2-5.2 5.2h-37.6c-2.9 0-5.2-2.4-5.2-5.2v-33.7c5.1-.1 9.2-4.1 9.2-9.2h33.7c2.9 0 5.2 2.4 5.2 5.2l-.1 37.7"/><path d="m108.1 26.7c.2.5.8.9 1.4.9.2 0 .4-.1.6-.1.8-.3 1.1-1.2.7-2l-2-4.4 4.4-2c.8-.3 1.2-1.2.9-1.9-.3-.8-1.2-1.2-1.9-.9-.1 0-.1 0-.2.1l-5.8 2.7c-.4.2-.6.5-.8.8-.2.4-.2.8 0 1.1l2.7 5.7"/><path d="m111.6 21.8c-.3.8.1 1.6.9 1.9 6.2 2.1 11.1 6.8 13.5 12.9.2.6.8.9 1.4.9.2 0 .4 0 .6-.1.8-.3 1.2-1.2.9-1.9 0 0 0 0 0-.1-2.8-6.8-8.4-12.1-15.3-14.6-.9-.3-1.7.2-2 1"/><path d="m124.3 38.7c-.7-.4-1.6-.1-2 .7-.4.7-.1 1.6.7 2 0 0 .1 0 .1 0l5.8 2.6c.2.1.4.1.6.1.2 0 .4 0 .5-.1.4-.1.7-.4.8-.8l2.6-5.8c.4-.7.1-1.6-.6-2-.7-.4-1.6-.1-2 .6 0 .1-.1.1-.1.2l-2 4.4-4.4-1.9"/><path d="m83.6 18.9l-6.9 4v-3.9c0-.8-.7-1.5-1.5-1.5s-1.5.7-1.5 1.5v5.7l-8.4 4.9c-.7.4-1 1.3-.6 2 .3.5.8.8 1.3.8.3 0 .5-.1.8-.2l6.9-4v6l-11.5 6.9c-.7.4-.9 1.4-.5 2.1.3.4.7.7 1.3.7.3 0 .5-.1.8-.2l9.9-6v12.8c0 .8.7 1.5 1.5 1.5s1.5-.7 1.5-1.5v-24l8.4-4.9c.7-.4 1-1.3.6-2.1-.4-.7-1.4-.9-2.1-.6"/><path d="m129.2 64.2c-.8-.2-1.6.2-1.9 1l-5.3 18.4-5-9.6c-.4-.7-1.3-1-2-.6-.3.1-.5.4-.6.6l-5 9.6-5.4-18.3c-.2-.8-1.1-1.3-1.9-1-.8.2-1.3 1.1-1 1.9l6.3 21.9c.2.6.7 1 1.3 1.1.6.1 1.2-.3 1.5-.8l5.4-10.3 5.4 10.3c.3.5.8.8 1.3.8h.2c.6-.1 1.1-.5 1.3-1.1l6.4-21.9c.2-.9-.2-1.7-1-2"/></g><path d="m84.1 95.4v-29.1h-28.1c-1.5 0-2.9-.2-4.3-.7 2.7 4.2 7 7.1 11.9 8.1 2.5.5 5.2.6 7.2 2.2 2.2 1.8 2.6 4.9 2.7 7.7.2 5-.2 10.2 1.1 15.1s4.6 9.7 9.5 10.8c3.1.7 6.3-.1 9.2-1.1l.9-.3c-5.9-1.4-10.1-6.6-10.1-12.7" fill="#f7d916"/></svg>