<svg xmlns="http://www.w3.org/2000/svg" viewBox="0 0 153.6 153.6" enable-background="new 0 0 153.6 153.6"><g fill="#1d252c"><path d="m33 102c-1.7 4.8.8 10 5.5 11.8 1.2.5 2.5.7 3.8.8 3.5 0 6.7-2 8.1-5.2l10.6-21.8c.4-.7.1-1.6-.7-2-.7-.4-1.6-.1-2 .7l-10.5 21.5-.1.2c-1.4 3.1-5 4.4-8.1 3-3.3-1.2-5-4.8-3.8-8.1.7-1.8 1.4-3.6 2.3-5.4 3.2-6.7 7.7-15.8 3.2-30.8-.2-.8-1-1.3-1.8-1s-1.3 1-1 1.8c0 0 0 .1 0 .1 4.2 13.8.2 22-3 28.6-1 1.9-1.8 3.8-2.5 5.8"/><path d="m143.9 54.3c-.2-.4-.6-.7-1-.8-.2-.1-23.5-6.6-31.2-26.2-1-2.7-2.8-5-5.2-6.5-6.1-3.8-14-2.1-18 3.9 0 .1-.1.1-.1.2l-15.8 32.1c-.4.7-.1 1.6.7 2 .7.4 1.6.1 2-.7l15.7-32.1c3.1-4.6 9.2-5.8 13.8-2.9 1.9 1.2 3.3 3 4.1 5.1 3.9 10 11.4 16.7 18.3 21.1l-4.2 8.5c-6-2.6-11.4-6.5-15.8-11.4-2.5-2.7-6.7-2.9-9.4-.5-.6.6-1.1 1.3-1.5 2l-33.5 68.6c-.2.4-.5.9-.7 1.3-4.5 8.3-13.7 16.1-25.8 13.2-10-2.4-17.1-11.3-17.3-21.6-.1-4.6.3-9.2 1.2-13.6 1.2-5.9 2.7-16.7-.4-25.1l10-1.2c.8-.1 1.4-.8 1.3-1.7-.1-.8-.8-1.4-1.6-1.3l-12 1.4c-.8.1-1.4.8-1.3 1.7 0 .2.1.3.1.5 3.8 7.8 2.2 19 1 25-1 4.7-1.5 9.5-1.4 14.3.2 11.7 8.2 21.7 19.6 24.4 1.8.4 3.7.7 5.6.7 8.1 0 17.3-4 23.5-15.4.3-.5.5-1 .8-1.4l33.6-68.4c.5-1.1 1.6-1.8 2.8-2 1.2-.2 2.4.3 3.2 1.2 5 5.5 11.1 9.8 18 12.5h.1c.1.1.2.1.4.1 5 1.8 10.3 2.7 15.6 2.4.6 0 1-.3 1.3-.8l3.6-7.4c.1-.3.1-.8-.1-1.2m-5.9 6.5c-4.1.1-8.2-.5-12.1-1.7l3.9-8c3.4 1.9 6.9 3.5 10.6 4.8l-2.4 4.9"/><path d="m44.5 64.8l.4 3.4c.1.8.9 1.4 1.7 1.3.8-.1 1.4-.9 1.3-1.7l-.4-3.4c-.5-3.6-3.8-6.2-7.4-5.8l-24.6 3c-3.6.5-6.2 3.8-5.8 7.4l.4 3.4c.1.7.7 1.3 1.5 1.3h.2c.8-.1 1.4-.8 1.3-1.7l-.4-3.4c-.2-2 1.2-3.8 3.2-4.1l24.6-3c2-.1 3.8 1.3 4 3.3"/><path d="m64.9 62.2l10.9 5.3c.2.1.4.1.7.2.8 0 1.5-.7 1.5-1.5 0-.6-.3-1.1-.8-1.3l-10.9-5.3c-.7-.4-1.6-.1-2 .7-.5.6-.2 1.5.6 1.9"/><path d="m60.6 70.9l10.9 5.3c.2.1.4.1.7.2.8 0 1.5-.7 1.5-1.5 0-.6-.3-1.1-.8-1.4l-10.9-5.3c-.7-.4-1.6-.1-2 .6-.4.7-.1 1.6.6 2-.1 0 0 .1 0 .1"/><path d="m56.4 79.6l10.9 5.3c.2.1.4.2.7.2.8 0 1.5-.7 1.5-1.5 0-.6-.3-1.1-.8-1.3l-10.9-5.3c-.7-.4-1.6-.1-2 .7-.5.6-.2 1.5.6 1.9"/></g><path d="m102.4 27.1c-.2-.1-.4-.2-.6-.3-2.4-1.2-5.4-.5-7 1.7l-6.5 13.5c2.7-2.2 5.6-4 8.8-5.3 3.1-1.2 6.4-1.9 9.7-2-.8-1.5-1.5-3-2.1-4.6-.4-1.2-1.2-2.2-2.3-3" fill="#f7d916"/></svg>