<svg xmlns="http://www.w3.org/2000/svg" viewBox="0 0 153.6 153.6" enable-background="new 0 0 153.6 153.6"><g fill="#1d252c"><path d="m104.3 117.6h-54.9c-.8 0-1.5.7-1.5 1.5s.7 1.5 1.5 1.5h54.9c.8 0 1.5-.7 1.5-1.5s-.7-1.5-1.5-1.5"/><path d="m49.4 28.2h52.9c.8 0 1.5-.7 1.5-1.5s-.7-1.5-1.5-1.5h-52.9c-.8 0-1.5.7-1.5 1.5s.6 1.5 1.5 1.5"/><path d="m103.3 11.9h-53c-5.1 0-9.2 4.1-9.2 9.2v112.4c0 4.6 3.7 8.3 8.3 8.3h54.8c4.6 0 8.3-3.7 8.3-8.3v-112.4c0-5.1-4.1-9.2-9.2-9.2m6.2 121.6c0 2.9-2.4 5.3-5.3 5.3h-54.7c-2.9 0-5.3-2.4-5.3-5.3v-112.4c0-3.4 2.8-6.2 6.2-6.2h53c3.4 0 6.2 2.8 6.2 6.2l-.1 112.4"/><path d="m76.8 123.4c-3.5 0-6.4 2.9-6.4 6.4s2.9 6.4 6.4 6.4c3.5 0 6.4-2.9 6.4-6.4s-2.9-6.4-6.4-6.4m0 9.8c-1.9 0-3.4-1.5-3.4-3.4 0-1.9 1.5-3.4 3.4-3.4s3.4 1.5 3.4 3.4c0 1.9-1.5 3.4-3.4 3.4"/><path d="m69.2 21.6h15.3c.8 0 1.5-.7 1.5-1.5s-.7-1.5-1.5-1.5h-15.3c-.8 0-1.5.7-1.5 1.5s.7 1.5 1.5 1.5"/></g><path d="m67.6 32.7h36.7v54.4l-4-14.1c-5-17.4-16.8-31.9-32.7-40.3" fill="#f7d916"/></svg>