<svg xmlns="http://www.w3.org/2000/svg" viewBox="0 0 153.6 153.6" enable-background="new 0 0 153.6 153.6"><path d="m96.3 98.7c-12.6 13.4-26.4 13.5-39 .2l-12.3 3.5c20.4 24.4 43.2 24.3 63.6-.2l-12.3-3.5" fill="#f7d916"/><path d="m128.3 114.8c-1-5.1-3.7-9.6-7.7-12.9-2.2-1.9-4.8-3.3-7.6-4l-18-5.2c-.9-.3-1.6-1-1.7-2l-.7-6.3c4.9-4.2 8.5-9.8 10.2-16 3.5-1 6-4.9 6-9.7 0-4.3-2.1-8.1-5.1-9.4 0-1.7-.1-3.3-.4-5l.8-.3c2.1-1 3.5-3.1 3.5-5.5v-11.2l13.8-4.3c1.6-.5 2.5-2.2 2-3.8-.3-.9-1-1.7-2-2l-39.3-12.3c-3.4-1.1-7.1-1.1-10.4 0l-39.2 12.3c-.6.2-1 .8-1 1.4v20.7c0 .8.7 1.5 1.5 1.5s1.5-.7 1.5-1.5v-19.5l38.2-12c2.8-.9 5.8-.9 8.7 0l39.2 12.3-39.4 12.3c-2.8.9-5.8.9-8.7 0l-31.4-9.9c-.8-.2-1.6.2-1.9 1-.2.8.2 1.6 1 1.9l5.9 1.9v11.1c0 2.4 1.4 4.5 3.5 5.5l.1.1c-.2 1.8-.3 3.6-.2 5.5-2.9 1.5-4.8 5-4.8 9.2 0 4.8 2.5 8.7 6 9.7 1.7 6.2 5.3 11.8 10.2 16l-.7 6.3c-.1.7-.5 1.3-1 1.7-.2.1-.4.2-.7.3l-17.9 5.2c-2.8.7-5.5 2.1-7.7 4-3.9 3.3-6.7 7.8-7.7 12.8l-4.5 34.9h111.8l-4.2-34.8m-38.2-10.7l-12-1 11.9-10.7.1 11.7m-26.6-11.7l11.9 10.6-12 1 .1-11.6m-14.3-54v-10.2l22.4 7.1c3.4 1.1 7 1.1 10.4 0l22.4-7.1v10.2c0 1.2-.7 2.2-1.8 2.7-16.5 7.5-35.4 7.5-51.8 0-.9-.4-1.6-1.5-1.6-2.7m4.3 28.3l-.3-1-1-.1c-2.4-.2-4.3-3.2-4.3-6.9 0-3.3 1.6-6.2 3.7-6.8h.1l.2-.1.1-.1.1-.1.1-.1.1-.1.1-.1c0 0 .1-.1.1-.1 0 0 0-.1.1-.1l.1-.1c0-.1 0-.1 0-.2 0 0 0-.1 0-.1 0-.1 0-.2 0-.3-.1-1.7-.1-3.4.1-5.1 7.7 3 15.9 4.6 24.1 4.6 8 0 16-1.5 23.5-4.4.2 1.6.3 3.3.2 4.9 0 .8.6 1.5 1.4 1.6 2.1.6 3.7 3.5 3.7 6.8 0 3.6-1.9 6.7-4.3 6.9l-1 .1-.3 1c-1.6 6.2-5.1 11.7-10.1 15.8l-.6.4.6 5.4-13.3 11.9-13.1-11.8.6-5.5-.7-.5c-4.9-4.1-8.4-9.6-10-15.8m-25.2 48.5c.9-4.3 3.2-8.2 6.6-11 1.9-1.6 4.1-2.8 6.5-3.4l18-5.2c.3-.1.7-.3 1-.4l-.1 12.2 16.4-1.4 16.4 1.4-.1-12.4c.4.2.8.4 1.2.5l18.1 5.2c2.4.6 4.6 1.8 6.4 3.4 3.4 2.8 5.7 6.7 6.6 11l4 31.4h-105l4-31.3" fill="#1d252c"/></svg>