<svg xmlns="http://www.w3.org/2000/svg" viewBox="0 0 153.6 153.6" enable-background="new 0 0 153.6 153.6"><path d="m57.8 120.6c-1.2-3.1-3.3-5.7-6.2-7.3-3.6-1.9-7.9-1.8-11.6-3.5-6-2.8-9-9.6-13.8-14.1-2.6-2.4-5.7-4.2-9.1-5.3v30.3h40.7z" fill="#f7d916"/><g fill="#1d252c"><path d="m145.4 81.9c0-.2-.1-.3-.1-.3v-.1l-14.1-23.6c-.4-.7-1.3-1-2-.7-.7.4-1 1.3-.7 2 0 .1.1.1.1.2l12.7 21.4h-32.1c-3.8 0-6.9 3.1-6.9 6.9v4.2c0 2.8-2.3 5.1-5.1 5.1h-40.8c-2.8 0-5.1-2.3-5.1-5.1v-4.2c0-3.8-3.1-6.9-6.9-6.9h-32.1l12.7-21.4c.4-.7.2-1.6-.5-2.1-.7-.4-1.6-.2-2.1.5l-14 23.6v.1c0 .1-.1.2-.1.3v.1c0 .1 0 .2 0 .4v40.3c0 4.9 4 9 8.9 9h119.3c4.9 0 8.9-4.1 8.9-9v-40.3c0-.2 0-.3 0-.4m-8.9 46.6h-119.4c-3.3 0-5.9-2.7-5.9-6v-38.7h33.2c2.2 0 3.9 1.7 3.9 3.9v4.2c0 4.5 3.6 8.1 8.1 8.1h40.8c4.5 0 8.1-3.6 8.1-8.1v-4.2c0-2.2 1.7-3.9 3.9-3.9h33.3v38.8c-.1 3.2-2.7 5.9-6 5.9"/><path d="m30 77.5c.8 0 1.5-.7 1.5-1.5v-47.8c0-1.7 1.4-3.1 3-3.1h22.1c1.7 0 3.1 1.4 3 3.1v64c0 .8.7 1.5 1.5 1.5s1.5-.7 1.5-1.5v-64c0-1.7 1.4-3.1 3.1-3.1h22.1c1.7 0 3.1 1.4 3.1 3.1v64c0 .8.7 1.5 1.5 1.5s1.5-.7 1.5-1.5v-64c0-1.7 1.3-3 3-3.1h22.1c1.7 0 3 1.4 3 3.1v47.3c0 .8.7 1.5 1.5 1.5s1.5-.7 1.5-1.5v-47.3c0-3.3-2.7-6-6-6.1h-22c-1.7 0-3.4.8-4.6 2.1-1.1-1.3-2.8-2.1-4.6-2.1h-22c-1.8 0-3.4.8-4.6 2.1-1.1-1.3-2.8-2.1-4.5-2.1h-22.2c-3.3 0-6 2.7-6 6.1v47.8c0 .8.6 1.5 1.5 1.5"/><path d="m52.8 47.3h-15.7c-.8 0-1.5.7-1.5 1.5s.7 1.5 1.5 1.5h15.7c.8 0 1.5-.7 1.5-1.5s-.6-1.5-1.5-1.5"/><path d="m52.8 54.4h-15.7c-.8 0-1.5.7-1.5 1.5s.7 1.5 1.5 1.5h15.7c.8 0 1.5-.7 1.5-1.5s-.6-1.5-1.5-1.5"/><path d="m84.7 47.3h-15.7c-.8 0-1.5.7-1.5 1.5s.7 1.5 1.5 1.5h15.7c.8 0 1.5-.7 1.5-1.5s-.7-1.5-1.5-1.5"/><path d="m84.7 54.4h-15.7c-.8 0-1.5.7-1.5 1.5s.7 1.5 1.5 1.5h15.7c.8 0 1.5-.7 1.5-1.5s-.7-1.5-1.5-1.5"/><path d="m116.6 47.3h-15.7c-.8 0-1.5.7-1.5 1.5s.7 1.5 1.5 1.5h15.7c.8 0 1.5-.7 1.5-1.5s-.7-1.5-1.5-1.5"/><path d="m116.6 54.4h-15.7c-.8 0-1.5.7-1.5 1.5s.7 1.5 1.5 1.5h15.7c.8 0 1.5-.7 1.5-1.5s-.7-1.5-1.5-1.5"/></g></svg>